<svg width="432" height="196" viewBox="0 0 432 196" fill="none" xmlns="http://www.w3.org/2000/svg">
<rect y="38" width="39" height="119" rx="19.5" fill="#C72C41"/>
<rect x="51" y="3" width="39" height="190" rx="19.5" fill="#EE4540"/>
<path d="M129.088 150.68V68.024C129.088 65.816 127.888 64.664 125.488 64.568L120.448 64.28V52.328H145.792V86.456C150.112 82.424 155.92 80.408 163.216 80.408C172.24 80.408 179.392 83.48 184.672 89.624C189.952 95.672 192.592 104.216 192.592 115.256C192.592 143 180.976 156.872 157.744 156.872C152.752 156.872 147.472 156.248 141.904 155C136.432 153.848 132.16 152.408 129.088 150.68ZM145.792 104.024V141.32C149.44 143.24 153.664 144.2 158.464 144.2C169.408 144.2 174.88 135.32 174.88 117.56C174.88 101.336 169.504 93.224 158.752 93.224C155.296 93.224 152.272 94.232 149.68 96.248C147.088 98.264 145.792 100.856 145.792 104.024ZM267.424 85.448V139.016C267.424 140.552 267.664 141.608 268.144 142.184C268.72 142.76 269.68 143.096 271.024 143.192L275.632 143.48V155H252.736V146.648L252.304 146.504C247.504 153.416 240.928 156.872 232.576 156.872C222.784 156.872 215.536 153.752 210.832 147.512C206.128 141.272 203.776 132.728 203.776 121.88C203.776 108.824 206.944 98.648 213.28 91.352C219.616 84.056 229.12 80.408 241.792 80.408C249.952 80.408 258.496 82.088 267.424 85.448ZM250.72 132.104V94.808C248.032 93.56 244.336 92.936 239.632 92.936C233.2 92.936 228.544 95.528 225.664 100.712C222.784 105.896 221.344 112.76 221.344 121.304C221.344 136.856 226.336 144.632 236.32 144.632C240.544 144.632 244 143.384 246.688 140.888C249.376 138.296 250.72 135.368 250.72 132.104ZM322.199 93.512C319.895 92.648 317.111 92.216 313.847 92.216C310.583 92.216 307.943 92.984 305.927 94.52C304.007 95.96 303.047 97.784 303.047 99.992C303.047 102.104 303.383 103.784 304.055 105.032C304.823 106.184 305.975 107.192 307.511 108.056C309.911 109.304 312.791 110.408 316.151 111.368C319.511 112.232 322.007 112.952 323.639 113.528C325.271 114.008 327.287 114.872 329.687 116.12C332.183 117.368 334.055 118.712 335.303 120.152C338.663 123.704 340.343 128.264 340.343 133.832C340.343 141.032 337.703 146.696 332.423 150.824C327.239 154.856 320.615 156.872 312.551 156.872C300.839 156.872 292.007 155.384 286.055 152.408V132.392L299.015 131.384V138.296C299.015 142.52 303.047 144.632 311.111 144.632C319.175 144.632 323.207 141.704 323.207 135.848C323.207 133.736 322.487 132.008 321.047 130.664C319.703 129.32 318.359 128.408 317.015 127.928C315.671 127.448 314.039 126.968 312.119 126.488C310.295 126.008 308.471 125.528 306.647 125.048C304.919 124.568 302.999 123.944 300.887 123.176C298.871 122.312 296.615 121.112 294.119 119.576C289.223 116.408 286.775 111.128 286.775 103.736C286.775 96.248 289.415 90.488 294.695 86.456C299.975 82.424 306.599 80.408 314.567 80.408C322.631 80.408 330.599 82.328 338.471 86.168V103.448L325.511 104.456V98.408C325.511 96.008 324.407 94.376 322.199 93.512ZM358.224 138.872V68.744C358.224 67.208 357.936 66.152 357.36 65.576C356.88 65 355.968 64.664 354.624 64.568L349.584 64.28V52.328H375.216V91.064C380.208 83.96 387.216 80.408 396.24 80.408C403.536 80.408 409.152 82.52 413.088 86.744C417.12 90.872 419.136 97.112 419.136 105.464V143.048L427.344 143.48V155H393.072V144.056L397.824 143.624C399.264 143.432 400.32 143.048 400.992 142.472C401.664 141.8 402 140.6 402 138.872V109.208C402 104.216 401.184 100.376 399.552 97.688C398.016 95 394.944 93.656 390.336 93.656C385.824 93.656 382.176 95.096 379.392 97.976C376.704 100.76 375.36 104.168 375.36 108.2V143.048L383.568 143.48V155H349.296V144.056L354.048 143.624C355.488 143.432 356.544 143.048 357.216 142.472C357.888 141.8 358.224 140.6 358.224 138.872Z" fill="#801336"/>
</svg>
